<svg width="44" height="40" viewBox="0 0 44 40" fill="none" xmlns="http://www.w3.org/2000/svg">
<path d="M28.5322 24.8477L18.6007 24.7969C17.3053 24.7969 16.4671 23.4507 16.9751 22.2823L21.6234 11.8682L22.4362 10.0648C22.6394 9.60761 22.6394 9.07421 22.4362 8.617L20.0232 3.23217L19.0579 1.04776C18.4229 -0.349252 16.4163 -0.349252 15.8067 1.04776L0.160231 36.0492C-0.373172 37.2176 0.490434 38.5638 1.78584 38.5638H2.26844H4.55446H8.56768C9.27889 38.5638 9.91389 38.1574 10.1933 37.497L12.6317 32.0359C12.9111 31.4009 13.5461 30.9691 14.2573 30.9691H21.1916C21.9028 30.9691 22.5632 31.4009 22.8426 32.0613L25.0524 37.4208C25.3318 38.0812 25.9668 38.513 26.7034 38.513H33.0534C34.3488 38.513 35.2124 37.1922 34.679 35.9984L30.1324 25.8383C29.853 25.2541 29.218 24.8477 28.5322 24.8477Z" fill="#6F328A"/>
<path d="M43.6453 22.4347C43.6453 22.6379 43.4675 22.8157 43.2643 22.8157L20.6581 22.7141C20.3787 22.7141 20.0993 22.5617 19.9469 22.3331C19.7945 22.0791 19.7691 21.7742 19.8961 21.5202L29.1418 0.768319C29.218 0.565118 29.472 0.488917 29.6498 0.565118L30.5134 0.94612C30.7166 1.02232 30.7928 1.27632 30.7166 1.45412L22.0043 21.0122L43.2897 21.1138C43.4929 21.1138 43.6707 21.2916 43.6707 21.4948L43.6453 22.4347Z" fill="black"/>
</svg>
